# This file uses centimeters as units for non-parametric coordinates.

mtllib questionMark.mtl
g default
v 2.256795 -0.427746 0.500000
v 3.256795 -0.427746 0.500000
v 2.256795 0.427746 0.500000
v 3.256795 0.427746 0.500000
v 2.256795 0.427746 -0.346621
v 3.256795 0.427746 -0.500000
v 2.256795 -0.427746 -0.346621
v 3.256795 -0.427746 -0.500000
v 2.035220 0.427746 -0.799333
v 2.568949 0.427746 -1.644989
v 2.568949 -0.427746 -1.644989
v 2.035220 -0.427746 -0.799333
v 2.035220 0.427746 -0.799333
v 2.568949 0.427746 -1.644989
v 2.568949 -0.427746 -1.644989
v 2.035220 -0.427746 -0.799333
v 1.581414 0.427746 -0.813614
v 1.514371 0.427746 -1.811364
v 1.514371 -0.427746 -1.811364
v 1.581414 -0.427746 -0.813614
v 1.433523 0.427746 -0.824837
v 1.082437 0.427746 -1.761180
v 1.082437 -0.427746 -1.761180
v 1.433523 -0.427746 -0.824837
v 1.773342 -0.427746 0.859181
v 2.566920 -0.427746 1.467649
v 2.566920 0.427746 1.467649
v 1.773342 0.427746 0.859181
v 1.182607 -0.427746 0.940296
v 1.343457 -0.427746 1.927275
v 1.343457 0.427746 1.927275
v 1.182607 0.427746 0.940296
v 0.568637 -0.427746 0.761291
v 0.297556 -0.427746 1.723848
v 0.297556 0.427746 1.723848
v 0.568637 0.427746 0.761291
v -0.044879 -0.427746 0.355885
v -0.629307 -0.427746 1.167331
v -0.629307 0.427746 1.167331
v -0.044879 0.427746 0.355885
v -0.872447 -0.427746 -0.211870
v -1.187019 -0.427746 0.737364
v -1.187019 0.427746 0.737364
v -0.872447 0.427746 -0.211870
v -1.903718 -0.427746 -0.266856
v -1.903718 -0.427746 0.731975
v -1.903718 0.427746 0.731975
v -1.903718 0.427746 -0.266856
v -3.256794 -0.392429 0.621421
v -2.283236 -0.392429 0.745399
v -3.256794 0.392429 0.621421
v -2.283236 0.392429 0.745399
v -3.132817 0.392429 -0.352137
v -2.159258 0.392429 -0.228159
v -3.132817 -0.392429 -0.352137
v -2.159258 -0.392429 -0.228159
vt 0.375000 0.000000
vt 0.625000 0.000000
vt 0.375000 0.250000
vt 0.625000 0.250000
vt 0.375000 0.500000
vt 0.625000 0.500000
vt 0.375000 0.750000
vt 0.625000 0.750000
vt 0.375000 1.000000
vt 0.625000 1.000000
vt 0.875000 0.000000
vt 0.875000 0.250000
vt 0.125000 0.000000
vt 0.125000 0.250000
vt 0.375000 0.500000
vt 0.625000 0.500000
vt 0.625000 0.750000
vt 0.375000 0.750000
vt 0.375000 0.500000
vt 0.625000 0.500000
vt 0.625000 0.750000
vt 0.375000 0.750000
vt 0.375000 0.500000
vt 0.625000 0.500000
vt 0.625000 0.750000
vt 0.375000 0.750000
vt 0.375000 0.500000
vt 0.625000 0.500000
vt 0.625000 0.750000
vt 0.375000 0.750000
vt 0.375000 0.000000
vt 0.625000 0.000000
vt 0.625000 0.250000
vt 0.375000 0.250000
vt 0.375000 0.000000
vt 0.625000 0.000000
vt 0.625000 0.250000
vt 0.375000 0.250000
vt 0.375000 0.000000
vt 0.625000 0.000000
vt 0.625000 0.250000
vt 0.375000 0.250000
vt 0.375000 0.000000
vt 0.625000 0.000000
vt 0.625000 0.250000
vt 0.375000 0.250000
vt 0.375000 0.000000
vt 0.625000 0.000000
vt 0.625000 0.250000
vt 0.375000 0.250000
vt 0.375000 0.000000
vt 0.625000 0.000000
vt 0.625000 0.250000
vt 0.375000 0.250000
vt 0.375000 0.000000
vt 0.625000 0.000000
vt 0.625000 0.250000
vt 0.375000 0.250000
vt 0.625000 0.500000
vt 0.375000 0.500000
vt 0.625000 0.750000
vt 0.375000 0.750000
vt 0.625000 1.000000
vt 0.375000 1.000000
vt 0.875000 0.000000
vt 0.875000 0.250000
vt 0.125000 0.000000
vt 0.125000 0.250000
vn -1.000000 0.000000 -0.000000
vn -1.000000 0.000000 -0.000000
vn -1.000000 0.000000 -0.000000
vn -1.000000 0.000000 -0.000000
vn 0.000000 1.000000 0.000000
vn 0.000000 1.000000 0.000000
vn 0.000000 1.000000 -0.000000
vn 0.000000 1.000000 -0.000000
vn -0.936343 0.000000 0.351086
vn -0.936343 0.000000 0.351086
vn -0.936343 0.000000 0.351086
vn -0.936343 0.000000 0.351086
vn 0.000000 -1.000000 0.000000
vn 0.000000 -1.000000 0.000000
vn 0.000000 -1.000000 0.000000
vn 0.000000 -1.000000 0.000000
vn 0.943679 0.000000 0.330862
vn 0.952237 0.000000 -0.305360
vn 0.952237 0.000000 -0.305360
vn 0.943679 0.000000 0.330862
vn -0.985770 0.000000 0.168103
vn -0.928176 0.000000 -0.372142
vn -0.928176 0.000000 -0.372142
vn -0.985770 0.000000 0.168103
vn 0.000000 1.000000 -0.000000
vn 0.000000 1.000000 -0.000000
vn 0.857211 0.000000 -0.514965
vn 0.857211 0.000000 -0.514965
vn 0.000000 -1.000000 0.000000
vn 0.000000 -1.000000 0.000000
vn -0.898190 0.000000 0.439608
vn -0.898190 0.000000 0.439608
vn 0.000000 0.000000 0.000000
vn 0.000000 0.000000 0.000000
vn 0.000000 0.000000 0.000000
vn 0.000000 0.000000 0.000000
vn 0.000000 0.000000 0.000000
vn 0.000000 0.000000 0.000000
vn 0.000000 0.000000 0.000000
vn 0.000000 0.000000 0.000000
vn 0.000000 0.000000 0.000000
vn 0.000000 0.000000 0.000000
vn 0.000000 0.000000 0.000000
vn 0.000000 0.000000 0.000000
vn 0.000000 0.000000 0.000000
vn 0.000000 0.000000 0.000000
vn 0.000000 0.000000 0.000000
vn 0.000000 0.000000 0.000000
vn 0.000000 1.000000 0.000000
vn 0.000000 1.000000 0.000000
vn 0.000000 1.000000 0.000000
vn 0.000000 1.000000 0.000000
vn 0.155837 0.000000 -0.987783
vn 0.155837 0.000000 -0.987783
vn 0.077926 0.000000 -0.996959
vn 0.077926 0.000000 -0.996959
vn 0.000000 -1.000000 0.000000
vn 0.000000 -1.000000 0.000000
vn 0.000000 -1.000000 0.000000
vn 0.000000 -1.000000 0.000000
vn -0.031454 0.000000 0.999505
vn -0.031454 0.000000 0.999505
vn -0.042349 0.000000 0.999103
vn -0.042349 0.000000 0.999103
vn 0.000000 1.000000 0.000000
vn 0.000000 1.000000 0.000000
vn -0.115407 0.000000 -0.993318
vn -0.115407 0.000000 -0.993318
vn 0.000000 -1.000000 0.000000
vn 0.000000 -1.000000 0.000000
vn -0.075669 0.000000 0.997133
vn -0.075669 0.000000 0.997133
vn 0.000000 -1.000000 0.000000
vn 0.000000 -1.000000 0.000000
vn 0.814252 0.000000 0.580512
vn 0.814252 0.000000 0.580512
vn 0.000000 1.000000 0.000000
vn 0.000000 1.000000 0.000000
vn -0.596372 0.000000 -0.802709
vn -0.596372 0.000000 -0.802709
vn 0.000000 -1.000000 0.000000
vn 0.000000 -1.000000 0.000000
vn 0.000000 -1.000000 0.000000
vn 0.000000 -1.000000 0.000000
vn 0.351678 0.000000 0.936121
vn 0.351678 0.000000 0.936121
vn 0.112182 0.000000 0.993688
vn 0.112182 0.000000 0.993688
vn 0.000000 1.000000 0.000000
vn 0.000000 1.000000 0.000000
vn 0.000000 1.000000 0.000000
vn 0.000000 1.000000 0.000000
vn -0.136036 0.000000 -0.990704
vn -0.136036 0.000000 -0.990704
vn 0.080989 0.000000 -0.996715
vn 0.080989 0.000000 -0.996715
vn 0.000000 -1.000000 0.000000
vn 0.000000 -1.000000 0.000000
vn -0.359469 0.000000 0.933157
vn -0.359469 0.000000 0.933157
vn 0.000000 1.000000 0.000000
vn 0.000000 1.000000 0.000000
vn 0.429870 0.000000 -0.902891
vn 0.429870 0.000000 -0.902891
vn 0.000000 -1.000000 0.000000
vn 0.000000 -1.000000 0.000000
vn -0.553444 0.000000 0.832886
vn -0.553444 0.000000 0.832886
vn 0.000000 1.000000 -0.000000
vn 0.000000 1.000000 -0.000000
vn 0.559643 0.000000 -0.828734
vn 0.559643 0.000000 -0.828734
vn 0.000000 -1.000000 0.000000
vn 0.000000 -1.000000 0.000000
vn -0.323271 0.000000 0.946307
vn -0.323271 0.000000 0.946307
vn 0.000000 1.000000 0.000000
vn 0.000000 1.000000 0.000000
vn 0.317664 0.000000 -0.948203
vn 0.317664 0.000000 -0.948203
vn 0.000000 -1.000000 0.000000
vn 0.000000 -1.000000 0.000000
vn -0.007519 0.000000 0.999972
vn -0.007519 0.000000 0.999972
vn 0.000000 1.000000 0.000000
vn 0.000000 1.000000 0.000000
vn 0.053244 0.000000 -0.998582
vn 0.053244 0.000000 -0.998582
vn -0.126325 0.000000 0.991989
vn -0.126325 0.000000 0.991989
vn -0.126325 0.000000 0.991989
vn -0.126325 0.000000 0.991989
vn 0.000000 1.000000 -0.000000
vn 0.000000 1.000000 -0.000000
vn 0.000000 1.000000 -0.000000
vn 0.000000 1.000000 -0.000000
vn 0.126325 -0.000000 -0.991989
vn 0.126325 -0.000000 -0.991989
vn 0.126325 -0.000000 -0.991989
vn 0.126325 -0.000000 -0.991989
vn 0.000000 -1.000000 -0.000000
vn 0.000000 -1.000000 -0.000000
vn 0.000000 -1.000000 -0.000000
vn 0.000000 -1.000000 -0.000000
vn 0.991989 0.000000 0.126325
vn 0.991989 0.000000 0.126325
vn 0.991989 0.000000 0.126325
vn 0.991989 0.000000 0.126325
vn -0.991989 0.000000 -0.126324
vn -0.991989 0.000000 -0.126324
vn -0.991989 0.000000 -0.126324
vn -0.991989 0.000000 -0.126324
s off
g questionMark
usemtl initialShadingGroup
f 45/51/1 46/52/2 47/53/3 48/54/4
s 1
f 3/3/5 4/4/6 6/6/7 5/5/8
s off
f 21/27/9 22/28/10 23/29/11 24/30/12
s 2
f 7/7/13 8/8/14 2/10/15 1/9/16
s 3
f 2/2/17 8/11/18 6/12/19 4/4/20
s 4
f 7/13/21 1/1/22 3/3/23 5/14/24
s 1
f 5/5/8 6/6/7 10/16/25 9/15/26
s 3
f 6/6/19 8/8/18 11/17/27 10/16/28
s 2
f 8/8/14 7/7/13 12/18/29 11/17/30
s 4
f 7/7/21 5/5/24 9/15/31 12/18/32
s off
f 9/15/33 10/16/34 14/20/35 13/19/36
f 10/16/37 11/17/38 15/21/39 14/20/40
f 11/17/41 12/18/42 16/22/43 15/21/44
f 12/18/45 9/15/46 13/19/47 16/22/48
s 5
f 13/19/49 14/20/50 18/24/51 17/23/52
s 6
f 14/20/53 15/21/54 19/25/55 18/24/56
s 7
f 15/21/57 16/22/58 20/26/59 19/25/60
s 8
f 16/22/61 13/19/62 17/23/63 20/26/64
s 5
f 17/23/52 18/24/51 22/28/65 21/27/66
s 6
f 18/24/56 19/25/55 23/29/67 22/28/68
s 7
f 19/25/60 20/26/59 24/30/69 23/29/70
s 8
f 20/26/64 17/23/63 21/27/71 24/30/72
s 2
f 1/1/16 2/2/15 26/32/73 25/31/74
s 3
f 2/2/17 4/4/20 27/33/75 26/32/76
s 1
f 4/4/6 3/3/5 28/34/77 27/33/78
s 4
f 3/3/23 1/1/22 25/31/79 28/34/80
s 9
f 25/31/81 26/32/82 30/36/83 29/35/84
s 10
f 26/32/85 27/33/86 31/37/87 30/36/88
s 11
f 27/33/89 28/34/90 32/38/91 31/37/92
s 12
f 28/34/93 25/31/94 29/35/95 32/38/96
s 9
f 29/35/84 30/36/83 34/40/97 33/39/98
s 10
f 30/36/88 31/37/87 35/41/99 34/40/100
s 11
f 31/37/92 32/38/91 36/42/101 35/41/102
s 12
f 32/38/96 29/35/95 33/39/103 36/42/104
s 9
f 33/39/98 34/40/97 38/44/105 37/43/106
s 10
f 34/40/100 35/41/99 39/45/107 38/44/108
s 11
f 35/41/102 36/42/101 40/46/109 39/45/110
s 12
f 36/42/104 33/39/103 37/43/111 40/46/112
s 9
f 37/43/106 38/44/105 42/48/113 41/47/114
s 10
f 38/44/108 39/45/107 43/49/115 42/48/116
s 11
f 39/45/110 40/46/109 44/50/117 43/49/118
s 12
f 40/46/112 37/43/111 41/47/119 44/50/120
s 9
f 41/47/114 42/48/113 46/52/121 45/51/122
s 10
f 42/48/116 43/49/115 47/53/123 46/52/124
s 11
f 43/49/118 44/50/117 48/54/125 47/53/126
s 12
f 44/50/120 41/47/119 45/51/127 48/54/128
s off
f 49/55/129 50/56/130 52/57/131 51/58/132
f 51/58/133 52/57/134 54/59/135 53/60/136
f 53/60/137 54/59/138 56/61/139 55/62/140
f 55/62/141 56/61/142 50/63/143 49/64/144
f 50/56/145 56/65/146 54/66/147 52/57/148
f 55/67/149 49/55/150 51/58/151 53/68/152
