# This file uses centimeters as units for non-parametric coordinates.

mtllib Rock1.mtl
g default
v 0.215637 -0.967484 0.130858
v 0.508653 1.041777 -0.582958
v 0.607169 0.959484 0.708060
v 0.907157 1.022392 -0.047673
v 0.158181 1.995350 -0.054222
v 0.004821 -0.841931 0.436076
v 0.307853 -0.891094 -0.088410
v 0.159338 -0.891094 0.354604
v -0.100292 1.957663 -0.342018
v -0.300379 1.369794 0.452933
v -0.649585 0.859961 -1.221052
v -0.121012 0.846832 0.823122
v 0.968976 1.034825 0.372446
v -0.211471 -0.909101 -0.239563
v -0.284803 -0.901970 0.023922
v 0.066317 -1.009868 0.025362
v -1.065943 1.602045 -0.207334
v -0.001581 1.617211 0.345337
v 0.251957 -0.841931 -0.285860
v -0.148651 0.853192 -1.671618
v -1.498969 0.918457 0.102806
v -0.073857 1.345463 -1.323840
v -0.413873 1.477280 -0.926238
v -1.124741 1.600878 0.005628
v -0.051020 -0.909101 -0.343680
v -0.265582 -0.909101 0.126842
vt 0.850000 0.100000
vt 0.575000 0.000000
vt 0.425000 0.000000
vt 0.275000 0.000000
vt 0.175000 0.000000
vt 0.100000 0.750000
vt 0.962500 0.750000
vt 0.281250 0.025000
vt 0.637500 0.050000
vt 0.393750 0.975000
vt 0.700000 0.100000
vt 0.775000 0.100000
vt 0.137500 0.050000
vt 0.925000 0.100000
vt 0.773559 0.749120
vt 0.906902 0.732120
vt 0.425000 1.000000
vt 0.575000 1.000000
vt 0.700000 0.900000
vt 0.323438 0.750000
vt 0.692188 0.750000
vt 0.843914 0.741886
vt 0.300000 0.100000
vt 0.449302 0.129292
vt 0.393750 0.025000
vt 0.281250 0.975000
vt 0.449302 0.883708
vt 0.637500 0.950000
vt 1.000000 0.100000
vt 0.100000 0.100000
vt 0.234375 0.750000
vt 0.500000 0.750000
vt 0.250000 0.900000
vt 0.250000 0.900000
vt 0.100000 0.900000
vt 0.275000 1.000000
vt 0.300000 0.900000
vt 0.500000 0.900000
vt 0.850000 0.900000
vt 0.775000 0.900000
vt 0.250000 0.100000
vt 0.500000 0.100000
vt 0.500000 0.100000
vn 0.777025 -0.293527 -0.556844
vn 0.285812 -0.539115 -0.792254
vn 0.393202 -0.190578 -0.899485
vn 0.841520 0.047558 -0.538129
vn -0.646061 -0.531931 -0.547407
vn -0.746138 -0.278866 -0.604575
vn -0.765926 -0.501273 -0.402595
vn -0.781867 -0.500127 0.372232
vn -0.935632 -0.238171 0.260514
vn -0.280578 -0.305501 0.909915
vn -0.286478 -0.075400 0.955115
vn 0.515605 -0.362339 0.776442
vn 0.491033 0.077148 0.867718
vn 0.833582 -0.462040 0.302754
vn 0.939499 0.141089 0.312146
vn 0.897026 -0.351191 -0.268346
vn 0.934271 0.091580 -0.344602
vn 0.494004 0.604319 -0.625107
vn 0.460206 0.884102 0.081076
vn -0.360412 0.717899 -0.595587
vn -0.699809 0.623210 0.349108
vn -0.708621 0.565337 -0.422197
vn -0.257759 0.516976 0.816270
vn 0.055567 0.672972 0.737578
vn -0.034836 -0.997807 -0.056281
vn -0.174536 0.925256 -0.336806
s 1
g pSphere1
usemtl initialShadingGroup
f 19/30/1 25/41/2 20/31/3 2/6/4
f 25/41/2 14/23/5 11/20/6 20/31/3
f 14/23/5 15/24/7 11/20/6
f 15/24/7 26/43/8 21/32/9 11/20/6
f 26/43/8 6/11/10 12/21/11 21/32/9
f 6/11/10 8/12/12 3/15/13 12/21/11
f 8/12/12 1/1/14 13/22/15 3/15/13
f 1/1/14 7/14/16 4/16/17 13/22/15
f 7/14/16 19/29/1 2/7/4 4/16/17
f 2/6/4 20/31/3 22/33/18 5/35/19
f 20/31/3 11/20/6 23/37/20 22/33/18
f 11/20/6 21/32/9 24/38/21 17/27/22
f 11/20/6 17/27/22 23/37/20
f 21/32/9 12/21/11 10/19/23 24/38/21
f 3/15/13 13/22/15 5/39/19 18/40/24
f 12/21/11 3/15/13 18/40/24 10/19/23
f 5/39/19 13/22/15 4/16/17 2/7/4
f 25/41/2 19/30/1 7/13/16 1/5/14
f 25/41/2 1/4/14 16/8/25 14/23/5
f 26/42/8 15/24/7 16/25/25 1/3/14
f 14/23/5 16/25/25 15/24/7
f 26/43/8 1/2/14 8/9/12 6/11/10
f 22/34/18 23/37/20 9/26/26 5/36/19
f 23/37/20 17/27/22 9/10/26
f 24/38/21 5/17/19 9/10/26 17/27/22
f 24/38/21 10/19/23 18/28/24 5/18/19
